<mxfile host="app.diagrams.net" agent="Mozilla/5.0 (Windows NT 10.0; Win64; x64) AppleWebKit/537.36 (KHTML, like Gecko) Chrome/131.0.0.0 Safari/537.36 OPR/116.0.0.0" version="26.0.16">
  <diagram name="Página-1" id="QaPSQKVlnRnAdOykC86v">
    <mxGraphModel dx="1072" dy="771" grid="1" gridSize="10" guides="1" tooltips="1" connect="1" arrows="1" fold="1" page="1" pageScale="1" pageWidth="827" pageHeight="1169" math="0" shadow="0">
      <root>
        <mxCell id="0" />
        <mxCell id="1" parent="0" />
        <mxCell id="t9zvPuLt8CfcTzxDBKwa-2" value="Iphone" style="html=1;whiteSpace=wrap;direction=south;" vertex="1" parent="1">
          <mxGeometry x="380" y="340" width="70" height="110" as="geometry" />
        </mxCell>
        <mxCell id="t9zvPuLt8CfcTzxDBKwa-3" value="Web Browser" style="html=1;whiteSpace=wrap;direction=south;" vertex="1" parent="1">
          <mxGeometry x="500" y="440" width="70" height="110" as="geometry" />
        </mxCell>
        <mxCell id="t9zvPuLt8CfcTzxDBKwa-6" value="" style="endArrow=classic;startArrow=classic;html=1;rounded=0;entryX=-0.027;entryY=0.886;entryDx=0;entryDy=0;entryPerimeter=0;" edge="1" parent="1" target="t9zvPuLt8CfcTzxDBKwa-3">
          <mxGeometry width="50" height="50" relative="1" as="geometry">
            <mxPoint x="450" y="400" as="sourcePoint" />
            <mxPoint x="500" y="350" as="targetPoint" />
          </mxGeometry>
        </mxCell>
        <mxCell id="t9zvPuLt8CfcTzxDBKwa-7" value="Music Player" style="html=1;whiteSpace=wrap;direction=south;" vertex="1" parent="1">
          <mxGeometry x="250" y="450" width="70" height="110" as="geometry" />
        </mxCell>
        <mxCell id="t9zvPuLt8CfcTzxDBKwa-8" value="" style="endArrow=classic;startArrow=classic;html=1;rounded=0;entryX=0.836;entryY=1;entryDx=0;entryDy=0;entryPerimeter=0;" edge="1" parent="1">
          <mxGeometry width="50" height="50" relative="1" as="geometry">
            <mxPoint x="320" y="450" as="sourcePoint" />
            <mxPoint x="380" y="401.96000000000004" as="targetPoint" />
          </mxGeometry>
        </mxCell>
        <mxCell id="t9zvPuLt8CfcTzxDBKwa-10" value="«interface»&lt;br&gt;&lt;b&gt;MusicPlayer&lt;/b&gt;" style="html=1;whiteSpace=wrap;" vertex="1" parent="1">
          <mxGeometry x="230" y="380" width="110" height="50" as="geometry" />
        </mxCell>
        <mxCell id="t9zvPuLt8CfcTzxDBKwa-11" value="«interface»&lt;br&gt;&lt;b&gt;Web Browser&lt;/b&gt;" style="html=1;whiteSpace=wrap;" vertex="1" parent="1">
          <mxGeometry x="490" y="370" width="110" height="50" as="geometry" />
        </mxCell>
        <mxCell id="t9zvPuLt8CfcTzxDBKwa-13" value="" style="endArrow=classic;html=1;rounded=0;" edge="1" parent="1">
          <mxGeometry width="50" height="50" relative="1" as="geometry">
            <mxPoint x="280" y="430" as="sourcePoint" />
            <mxPoint x="280" y="450" as="targetPoint" />
            <Array as="points">
              <mxPoint x="280" y="440" />
            </Array>
          </mxGeometry>
        </mxCell>
        <mxCell id="t9zvPuLt8CfcTzxDBKwa-14" value="" style="endArrow=classic;html=1;rounded=0;" edge="1" parent="1">
          <mxGeometry width="50" height="50" relative="1" as="geometry">
            <mxPoint x="534.5" y="420" as="sourcePoint" />
            <mxPoint x="534.5" y="440" as="targetPoint" />
            <Array as="points">
              <mxPoint x="534.5" y="430" />
            </Array>
          </mxGeometry>
        </mxCell>
        <mxCell id="t9zvPuLt8CfcTzxDBKwa-15" value="Phone" style="html=1;whiteSpace=wrap;" vertex="1" parent="1">
          <mxGeometry x="359" y="270" width="110" height="50" as="geometry" />
        </mxCell>
        <mxCell id="t9zvPuLt8CfcTzxDBKwa-16" value="" style="endArrow=classic;startArrow=classic;html=1;rounded=0;" edge="1" parent="1">
          <mxGeometry width="50" height="50" relative="1" as="geometry">
            <mxPoint x="413" y="340" as="sourcePoint" />
            <mxPoint x="413" y="320" as="targetPoint" />
            <Array as="points" />
          </mxGeometry>
        </mxCell>
        <mxCell id="t9zvPuLt8CfcTzxDBKwa-17" value="«interface»&lt;br&gt;&lt;b&gt;Phone&lt;/b&gt;" style="html=1;whiteSpace=wrap;" vertex="1" parent="1">
          <mxGeometry x="359" y="190" width="110" height="50" as="geometry" />
        </mxCell>
        <mxCell id="t9zvPuLt8CfcTzxDBKwa-18" value="" style="endArrow=classic;html=1;rounded=0;" edge="1" parent="1">
          <mxGeometry width="50" height="50" relative="1" as="geometry">
            <mxPoint x="410" y="240" as="sourcePoint" />
            <mxPoint x="410" y="270" as="targetPoint" />
          </mxGeometry>
        </mxCell>
      </root>
    </mxGraphModel>
  </diagram>
</mxfile>
